# xmcd
#
# Track frame offsets: 
#        150
#        12352
#        31823
#        48710
#        67176
#        85110
#        106737
#        122984
#        138882
#        157419
#        176892
#
# Disc length: 2555 seconds
#
# Revision: 1
# Processed by: cddbd v1.5.2PL0 Copyright (c) Steve Scherf et al.
# Submitted via: ExactAudioCopyFreeDBPlugin 1.0
#
DISCID=9a09f90b
DTITLE=方大同 - 回到未来 Back To Wonderland
DYEAR=2013
DGENRE=Pop
TTITLE0=Can You Feel The Music
TTITLE1=I Want You Back
TTITLE2=你就是
TTITLE3=千紙鶴
TTITLE4=關於愛的定義
TTITLE5=麥恩莉
TTITLE6=孤獨孩兒
TTITLE7=Romeo
TTITLE8=媽媽說
TTITLE9=愛立刻
TTITLE10=BB88
EXTD=
EXTT0=
EXTT1=
EXTT2=
EXTT3=
EXTT4=
EXTT5=
EXTT6=
EXTT7=
EXTT8=
EXTT9=
EXTT10=
PLAYORDER=
